<?xml version="1.0" encoding="utf-8"?>
<!-- Generator: Adobe Illustrator 26.3.1, SVG Export Plug-In . SVG Version: 6.00 Build 0)  -->
<svg version="1.1" id="Ebene_1" xmlns="http://www.w3.org/2000/svg" xmlns:xlink="http://www.w3.org/1999/xlink" x="0px" y="0px"
	 viewBox="0 0 33.7 49.2" style="enable-background:new 0 0 33.7 49.2;" xml:space="preserve">
<style type="text/css">
	.st0{fill:url(#Pfad_14_00000032620764963105792640000002795617751038834602_);}
	.st1{fill:url(#Pfad_15_00000023251753490865705550000005511281971569024425_);}
	.st2{fill:none;stroke:url(#Pfad_14_00000181769714432329177790000002706270202934129341_);stroke-miterlimit:10;}
	.st3{fill:none;stroke:url(#Pfad_15_00000156570001434250868170000010640480658834846655_);stroke-miterlimit:10;}
</style>
<g id="Artboard_1_00000057118672779660684680000002884245891979634590_" transform="translate(-14.032 -6.446)">
	
		<linearGradient id="Pfad_14_00000060742682563159285060000017057281204701304983_" gradientUnits="userSpaceOnUse" x1="-930.8969" y1="552.243" x2="-930.8969" y2="551.0471" gradientTransform="matrix(27.5183 0 0 -25.7479 25608.7656 14238.7119)">
		<stop  offset="0" style="stop-color:#56806C"/>
		<stop  offset="1" style="stop-color:#2E4D3F"/>
	</linearGradient>
	
		<path id="Pfad_14_00000041987979087660141180000005728435024535848833_" style="fill:url(#Pfad_14_00000060742682563159285060000017057281204701304983_);" d="
		M4.6,35c-0.8-0.2-1.6,0.3-1.8,1.2c0,0,0,0,0,0c-1.3,6-4.9,11.2-10.1,14.5c-8.1-5.4-9.6-10.1-8.9-14.2l0.9,0.5
		c1.1,0.5,1.9,0,1.8-1.2l-0.4-6.2c-0.1-1.2-1-1.7-2-1L-21,32c-0.6,0.2-0.9,0.9-0.6,1.5c0.1,0.3,0.4,0.6,0.8,0.7l1.9,0.9
		c-0.5,2.3-0.5,4.6,0.2,6.8c1.3,4.2,4.8,8,10.7,11.8c0.5,0.3,1.1,0.3,1.6,0c6.3-3.7,10.8-9.8,12.3-17C6,36,5.4,35.2,4.6,35z"/>
	
		<linearGradient id="Pfad_15_00000158724963503428603130000017785786757272458397_" gradientUnits="userSpaceOnUse" x1="-921.9286" y1="550.1086" x2="-921.9286" y2="548.8317" gradientTransform="matrix(21.8151 0 0 -24.1164 20109.2363 13286.2559)">
		<stop  offset="0" style="stop-color:#56806C"/>
		<stop  offset="1" style="stop-color:#2E4D3F"/>
	</linearGradient>
	
		<path id="Pfad_15_00000003062967982833050190000002470257940497066410_" style="fill:url(#Pfad_15_00000158724963503428603130000017785786757272458397_);" d="
		M6.6,24.7l-1.2,0.1c-1.8-6.6-6.1-12.2-12-15.6C-7.3,8.8-8.2,9-8.6,9.7c-0.1,0.2-0.2,0.5-0.2,0.8c0,4.5-2.2,8.7-4.7,13
		c-0.4,0.7-0.2,1.6,0.6,2.1c0.7,0.4,1.6,0.2,2.1-0.6c2.2-3.9,4.2-7.7,4.9-11.8c4.1,3,7,7.2,8.4,12.1l-2,0.2c-1.2,0.1-1.6,1.1-0.9,2
		l3.7,5c0.3,0.6,1,0.8,1.6,0.5c0.3-0.2,0.6-0.5,0.6-0.8L8,26.5C8.4,25.3,7.8,24.5,6.6,24.7z"/>
</g>
<g id="Artboard_1_00000079488155672116137870000016015050897881667757_" transform="translate(-14.032 -6.446)">
	
		<linearGradient id="Pfad_14_00000017476657562221474650000004905082499977655987_" gradientUnits="userSpaceOnUse" x1="15.4785" y1="41.1141" x2="43.9968" y2="41.1141">
		<stop  offset="0" style="stop-color:#56806C"/>
		<stop  offset="1" style="stop-color:#2E4D3F"/>
	</linearGradient>
	
		<path id="Pfad_14_00000034067817533913276650000003093109264608534196_" style="fill:none;stroke:url(#Pfad_14_00000017476657562221474650000004905082499977655987_);stroke-miterlimit:10;" d="
		M42.3,35c-0.8-0.2-1.6,0.3-1.8,1.2c0,0,0,0,0,0c-1.3,6-4.9,11.2-10.1,14.5c-8.1-5.4-9.6-10.1-8.9-14.2l0.9,0.5
		c1.1,0.5,1.9,0,1.8-1.2l-0.4-6.2c-0.1-1.2-1-1.7-2-1L16.7,32c-0.6,0.2-0.9,0.9-0.6,1.5c0.1,0.3,0.4,0.6,0.8,0.7l1.9,0.9
		c-0.5,2.3-0.5,4.6,0.2,6.8c1.3,4.2,4.8,8,10.7,11.8c0.5,0.3,1.1,0.3,1.6,0c6.3-3.7,10.8-9.8,12.3-17C43.6,36,43.1,35.2,42.3,35z"/>
	
		<linearGradient id="Pfad_15_00000172437323422337162330000013786130708637461175_" gradientUnits="userSpaceOnUse" x1="34.9097" y1="8.4906" x2="34.9097" y2="33.607">
		<stop  offset="0" style="stop-color:#56806C"/>
		<stop  offset="1" style="stop-color:#2E4D3F"/>
	</linearGradient>
	
		<path id="Pfad_15_00000165913811602158666660000010366932019935717280_" style="fill:none;stroke:url(#Pfad_15_00000172437323422337162330000013786130708637461175_);stroke-miterlimit:10;" d="
		M44.3,24.7l-1.2,0.1c-1.8-6.6-6.1-12.2-12-15.6c-0.7-0.4-1.6-0.2-2.1,0.5c-0.1,0.2-0.2,0.5-0.2,0.8c0,4.5-2.2,8.7-4.7,13
		c-0.4,0.7-0.2,1.6,0.6,2.1c0.7,0.4,1.6,0.2,2.1-0.6c2.2-3.9,4.2-7.7,4.9-11.8c4.1,3,7,7.2,8.4,12.1l-2,0.2c-1.2,0.1-1.6,1.1-0.9,2
		l3.7,5c0.3,0.6,1,0.8,1.6,0.5c0.3-0.2,0.6-0.5,0.6-0.8l2.4-5.7C46.1,25.3,45.5,24.5,44.3,24.7z"/>
</g>
</svg>
