<svg id="Arrow" xmlns="http://www.w3.org/2000/svg" width="373.766" height="330.902" viewBox="0 0 373.766 330.902">
  <g id="Arrow_line" transform="translate(0 0)" fill="none" stroke-linecap="round">
    <path d="M18.206,198.979a113.2,113.2,0,0,0,5.115,11.613A128.067,128.067,0,0,0,38.914,234.8c6.971,8.387,15.739,16.224,26.365,20.894,10.589,4.655,23.014,6.16,37.33,1.935,19.206-5.616,31.436-12.3,38.728-18.985,7.276-6.667,9.657-13.347,9.1-18.952a16.047,16.047,0,0,0-8.52-12.524,13.821,13.821,0,0,0-14.468.5c-9.466,5.613-13.748,13.114-13.752,20.95s4.268,15.979,11.874,22.889c7.587,6.892,18.477,12.541,31.723,15.423,13.19,2.87,28.7,2.994,45.594-1.12,13.251-3.226,27.318-10.8,41.4-21.361,14.027-10.52,28.076-24.009,41.367-39.142a417.444,417.444,0,0,0,36.729-48.838,372.091,372.091,0,0,0,27.663-50.779" stroke="none"/>
    <path d="M 350.9081726074219 103.4055480957031 C 350.614990234375 103.2885894775391 350.31103515625 103.2352981567383 350.0126342773438 103.2395477294922 C 349.7138061523438 103.2440643310547 349.4205322265625 103.3057632446289 349.14697265625 103.4197769165039 C 348.8742980957031 103.533561706543 348.6212768554688 103.6990432739258 348.4039306640625 103.9107284545898 C 348.18701171875 104.1219482421875 348.0047607421875 104.3792343139648 347.8736267089844 104.6770858764648 C 344.2149963378906 112.9842529296875 340.0200805664062 121.4602127075195 335.3800964355469 129.963623046875 C 330.7347106933594 138.4776000976562 325.6417846679688 147.0218811035156 320.1927490234375 155.4534301757812 C 314.7354431152344 163.8975677490234 308.919677734375 172.2308502197266 302.8379516601562 180.3094635009766 C 296.7462158203125 188.4015808105469 290.385498046875 196.23974609375 283.8487548828125 203.6776275634766 C 276.7006225585938 211.8123016357422 269.5351867675781 219.2401580810547 262.4349060058594 225.8984832763672 C 255.3207092285156 232.5706329345703 248.2723541259766 238.4700164794922 241.3737182617188 243.5328063964844 C 234.4599151611328 248.6059417724609 227.6977386474609 252.8386840820312 221.1696472167969 256.1674194335938 C 214.6296081542969 259.5025634765625 208.3257598876953 261.9293823242188 202.3453369140625 263.3832702636719 C 196.3143157958984 264.8492736816406 190.6338806152344 265.7359008789062 185.3221435546875 266.1756896972656 C 180.0020294189453 266.616455078125 175.0529327392578 266.60888671875 170.4954528808594 266.2869262695312 C 165.9323425292969 265.964111328125 161.7615356445312 265.3263244628906 158.0035552978516 264.5074768066406 C 154.2410278320312 263.6875 150.8932495117188 262.6864013671875 147.9795837402344 261.6393737792969 C 147.8754272460938 261.6019287109375 147.7722473144531 261.564697265625 147.6695404052734 261.52734375 C 147.5678100585938 261.4899597167969 147.4651031494141 261.4526062011719 147.3638305664062 261.4150390625 C 147.2620544433594 261.3774719238281 147.1612701416016 261.3400268554688 147.0609588623047 261.3026733398438 C 146.9606475830078 261.2651977539062 146.8607940673828 261.2275390625 146.7619476318359 261.18994140625 C 144.9715576171875 260.5116577148438 143.23388671875 259.7706298828125 141.5562438964844 258.973876953125 C 139.877197265625 258.1764526367188 138.2588348388672 257.3228149414062 136.7074737548828 256.4190673828125 C 135.1548309326172 255.5148315429688 133.6703033447266 254.5606689453125 132.2602844238281 253.5622406005859 C 130.8501129150391 252.5635986328125 129.5150909423828 251.5213317871094 128.2620391845703 250.4412384033203 C 129.4141235351562 249.8488006591797 130.5284576416016 249.2466583251953 131.6045989990234 248.6345825195312 C 132.6799163818359 248.0231018066406 133.7180938720703 247.4020385742188 134.7171630859375 246.7709045410156 C 135.7159576416016 246.1404876708984 136.6766662597656 245.5000762939453 137.5989074707031 244.8503723144531 C 138.5204162597656 244.2008666992188 139.4039306640625 243.5420074462891 140.2480621337891 242.8738250732422 C 141.1927185058594 242.1260070800781 142.0883331298828 241.3663330078125 142.9344024658203 240.5961303710938 C 143.7798004150391 239.8258819580078 144.5747375488281 239.0450134277344 145.3183288574219 238.2547912597656 C 146.061767578125 237.4651031494141 146.7543640136719 236.6657562255859 147.3937377929688 235.8585815429688 C 148.0334777832031 235.0513763427734 148.6195526123047 234.2363433837891 149.1529541015625 233.4145812988281 C 149.6529083251953 232.643798828125 150.1059875488281 231.8670196533203 150.5108032226562 231.0855712890625 C 150.9160766601562 230.3047027587891 151.2735443115234 229.5193176269531 151.5832672119141 228.73095703125 C 151.8929595947266 227.9424896240234 152.1539459228516 227.1510162353516 152.3672180175781 226.3577728271484 C 152.5799865722656 225.5645294189453 152.7445526123047 224.7698516845703 152.8589630126953 223.9745941162109 C 152.9973297119141 223.0204315185547 153.0624237060547 222.0679779052734 153.0566558837891 221.1233825683594 C 153.0509033203125 220.1789245605469 152.9727935791016 219.2423858642578 152.8252716064453 218.3205413818359 C 152.6772308349609 217.3988494873047 152.4587860107422 216.4913482666016 152.1703491210938 215.6046447753906 C 151.8828582763672 214.7177276611328 151.5258331298828 213.8518524169922 151.1002044677734 213.0132293701172 C 150.7076721191406 212.2401123046875 150.2619476318359 211.4979553222656 149.7678070068359 210.7904815673828 C 149.2731323242188 210.0830535888672 148.7304840087891 209.4106750488281 148.1422729492188 208.7776947021484 C 147.5544586181641 208.1445007324219 146.9214935302734 207.551025390625 146.2472229003906 207.0009918212891 C 145.5733032226562 206.4512329101562 144.8590393066406 205.9451599121094 144.1072692871094 205.4873352050781 C 143.8469848632812 205.3288116455078 143.5842437744141 205.1771392822266 143.3180847167969 205.0323333740234 C 143.0523834228516 204.8873748779297 142.7847137451172 204.74951171875 142.5136108398438 204.6187591552734 C 142.2434844970703 204.4877319335938 141.9698944091797 204.3639221191406 141.6943511962891 204.2469635009766 C 141.4192352294922 204.1299591064453 141.1421813964844 204.0199279785156 140.8636474609375 203.917236328125 C 140.4080352783203 203.7494659423828 139.9474639892578 203.6007080078125 139.4839172363281 203.4713897705078 C 139.0198059082031 203.3420715332031 138.5526733398438 203.2323150634766 138.0825653076172 203.1421661376953 C 137.6123504638672 203.0516967773438 137.1395874023438 202.9815368652344 136.6662750244141 202.9312744140625 C 136.19384765625 202.8813323974609 135.7188873291016 202.8512115478516 135.2447662353516 202.8415374755859 C 134.4239044189453 202.8246002197266 133.6099700927734 202.8707275390625 132.8088226318359 202.9774475097656 C 132.0075073242188 203.0843811035156 131.2189636230469 203.2521209716797 130.4476165771484 203.4792938232422 C 129.6775360107422 203.7063293457031 128.9241943359375 203.9931945800781 128.1943511962891 204.3372802734375 C 127.4643783569336 204.6815795898438 126.7574768066406 205.0839385986328 126.0794982910156 205.5422821044922 C 125.2306137084961 206.0477600097656 124.4140853881836 206.5720977783203 123.6304016113281 207.114501953125 C 122.8460540771484 207.6570587158203 122.0960540771484 208.2174072265625 121.3819122314453 208.7953033447266 C 120.6671142578125 209.373046875 119.9867324829102 209.9679870605469 119.3427276611328 210.5788879394531 C 118.6980972290039 211.1895294189453 118.0908966064453 211.8168182373047 117.5195999145508 212.4588012695312 C 116.9575042724609 213.0914306640625 116.4313735961914 213.7395629882812 115.9402618408203 214.4018249511719 C 115.449089050293 215.0640716552734 114.9943923950195 215.7409973144531 114.5762252807617 216.4308776855469 C 114.1580047607422 217.12060546875 113.7773056030273 217.8237762451172 113.4331359863281 218.5385894775391 C 113.0899276733398 219.2538452148438 112.7842559814453 219.9807586669922 112.5166168212891 220.7185363769531 C 112.0048141479492 222.1300354003906 111.6344833374023 223.5778503417969 111.4062042236328 225.0519104003906 C 111.1779098510742 226.5257720947266 111.0906982421875 228.0254974365234 111.1460647583008 229.5411682128906 C 111.2004318237305 231.056640625 111.3968734741211 232.5869598388672 111.7338790893555 234.1219024658203 C 112.0708312988281 235.6566009521484 112.5492706298828 237.1956481933594 113.1676559448242 238.7286682128906 C 113.4456939697266 239.4186706542969 113.7529678344727 240.1064758300781 114.0860748291016 240.7913970947266 C 114.4196090698242 241.4758148193359 114.7804260253906 242.1572723388672 115.1680297851562 242.8343048095703 C 115.5560531616211 243.5109710693359 115.9698715209961 244.1834564208984 116.4094543457031 244.8505249023438 C 116.849983215332 245.5173797607422 117.3152618408203 246.1787872314453 117.8072967529297 246.8334197998047 C 117.9424362182617 247.0140228271484 118.0795211791992 247.1940155029297 118.2190475463867 247.3738403320312 C 118.3585586547852 247.5532379150391 118.4995193481445 247.7322082519531 118.6434020996094 247.9110870361328 C 118.7863082885742 248.0897216796875 118.931640625 248.2675323486328 119.0779342651367 248.4450073242188 C 119.2247009277344 248.6220855712891 119.373908996582 248.7989807128906 119.5245666503906 248.9752960205078 C 118.2224273681641 249.5344085693359 116.8783798217773 250.083984375 115.4938201904297 250.6229705810547 C 114.1076965332031 251.1622009277344 112.681022644043 251.6910247802734 111.2137145996094 252.2093811035156 C 109.7452545166016 252.7278137207031 108.2361221313477 253.2362518310547 106.6862106323242 253.7334594726562 C 105.1360626220703 254.2312469482422 103.5455627441406 254.7183227539062 101.9136734008789 255.1943511962891 L 101.9107513427734 255.1953735351562 L 101.9078140258789 255.1963653564453 C 99.09455108642578 256.0252990722656 96.31446838378906 256.6380310058594 93.56909942626953 257.0349426269531 C 90.82190704345703 257.4326477050781 88.10854339599609 257.6137390136719 85.4310302734375 257.5786743164062 C 82.75128173828125 257.5435791015625 80.10749053955078 257.2917785644531 77.50069427490234 256.8236694335938 C 74.89175415039062 256.3552856445312 72.31990051269531 255.6702728271484 69.78620910644531 254.768310546875 C 67.23214721679688 253.8592224121094 64.71631622314453 252.7298736572266 62.24074554443359 251.380615234375 C 59.76368713378906 250.0301666259766 57.32701110839844 248.4593963623047 54.93125915527344 246.6689758300781 C 52.53361511230469 244.8767700195312 50.1770133972168 242.86376953125 47.86352157592773 240.6307983398438 C 45.54873275756836 238.3965911865234 43.27666091918945 235.9411315917969 41.04736709594727 233.2652435302734 C 39.28246688842773 231.1460418701172 37.63692855834961 228.9891815185547 36.11391067504883 226.85009765625 C 34.58958053588867 224.7100982666016 33.18801879882812 222.5881042480469 31.91086959838867 220.5392913818359 C 30.63314437866211 218.4898071289062 29.48005104064941 216.5137786865234 28.45471572875977 214.6668243408203 C 27.42850685119629 212.8189544677734 26.53023338317871 211.1009063720703 25.76101112365723 209.5677185058594 C 24.92439270019531 207.8983764648438 24.19085311889648 206.3515777587891 23.56247329711914 204.9696197509766 C 22.93294143676758 203.5870971679688 22.40765190124512 202.3699645996094 21.98716163635254 201.3600769042969 C 21.56659889221191 200.3493347167969 21.24939155578613 199.5467834472656 21.03706741333008 198.9931335449219 C 20.82472610473633 198.4400634765625 20.71629333496094 198.13623046875 20.7117748260498 198.1245422363281 C 20.6450080871582 197.9361877441406 20.55864143371582 197.7606201171875 20.45468139648438 197.5987701416016 C 20.3507194519043 197.4370269775391 20.22916412353516 197.2891693115234 20.09453201293945 197.1571197509766 C 19.95989418029785 197.0250701904297 19.81117630004883 196.9081726074219 19.65088844299316 196.8081817626953 C 19.49159622192383 196.7082977294922 19.32123184204102 196.6255645751953 19.1433162689209 196.5612945556641 C 19.00358963012695 196.5105743408203 18.85983276367188 196.4712829589844 18.7120418548584 196.4441680908203 C 18.56475067138672 196.4171905517578 18.41493225097656 196.40234375 18.26309585571289 196.4000091552734 C 18.11074829101562 196.3978118896484 17.9573860168457 196.4084625244141 17.80350875854492 196.4325714111328 C 17.65063095092773 196.4568023681641 17.49673461914062 196.4942321777344 17.34434127807617 196.5460052490234 C 16.99878311157227 196.6641693115234 16.69291687011719 196.8445434570312 16.4358081817627 197.0697021484375 C 16.17969131469727 197.2952728271484 15.97234725952148 197.5653686523438 15.82385635375977 197.8628845214844 C 15.67485523223877 198.1602935791016 15.58421611785889 198.4851531982422 15.55999183654785 198.8196258544922 C 15.53627014160156 199.1541137695312 15.5794734954834 199.4978942871094 15.69815349578857 199.8340911865234 C 15.71524810791016 199.8839569091797 15.83542919158936 200.2204437255859 16.0591926574707 200.8052062988281 C 16.28293609619141 201.3901824951172 16.61122894287109 202.2230682373047 17.04555511474609 203.2663726806641 C 17.47981262207031 204.3094329833984 18.02053451538086 205.5623626708984 18.66817283630371 206.9872131347656 C 19.31666374206543 208.4119415283203 20.07297515869141 210.0081481933594 20.93954086303711 211.7382354736328 C 21.44700050354004 212.7519073486328 21.96642684936523 213.7589111328125 22.49629020690918 214.7576446533203 C 23.02656364440918 215.7562255859375 23.56676864624023 216.7469635009766 24.1174144744873 217.727783203125 C 24.66794967651367 218.7085113525391 25.22841453552246 219.6789398193359 25.79729270935059 220.6381988525391 C 26.36605644226074 221.5973815917969 26.9432315826416 222.5446624755859 27.5283145904541 223.4788208007812 C 28.26200294494629 224.6487274169922 29.0090389251709 225.7988433837891 29.76639747619629 226.9270172119141 C 30.52456283569336 228.0550384521484 31.29354476928711 229.1613006591797 32.07385635375977 230.2437438964844 C 32.85243606567383 231.3254547119141 33.64183044433594 232.3839874267578 34.44002532958984 233.4166107177734 C 35.23899459838867 234.4491424560547 36.04626083374023 235.4563140869141 36.86080169677734 236.4354705810547 C 38.95132064819336 238.9492492675781 41.09432601928711 241.2890167236328 43.2862434387207 243.4512329101562 C 45.4765510559082 245.6117706298828 47.71515274047852 247.595703125 49.99797821044922 249.3998870849609 C 52.27908325195312 251.2024688720703 54.60430526733398 252.8251495361328 56.96958541870117 254.2652587890625 C 59.33353805541992 255.7046051025391 61.73746490478516 256.9609375 64.17681884765625 258.0321044921875 C 64.49269104003906 258.1707153320312 64.80851745605469 258.306396484375 65.12580108642578 258.43896484375 C 65.44306182861328 258.5711059570312 65.76078796386719 258.7005920410156 66.07897186279297 258.8267517089844 C 66.39662933349609 258.9529418945312 66.71525573730469 259.0762634277344 67.03384399414062 259.1961364746094 C 67.3533935546875 259.3161315917969 67.67291259765625 259.4329833984375 67.99337768554688 259.5467834472656 C 70.79368591308594 260.541259765625 73.63615417480469 261.2972106933594 76.51726531982422 261.8152160644531 C 79.39476776123047 262.3328552246094 82.31130218505859 262.6126708984375 85.2608642578125 262.6550598144531 C 88.20771789550781 262.6974792480469 91.18849945068359 262.5025329589844 94.1982421875 262.0708312988281 C 97.2052001953125 261.639404296875 100.2420196533203 260.9710998535156 103.3032684326172 260.066650390625 L 103.3032684326172 260.066650390625 C 105.1642837524414 259.5219421386719 106.9768524169922 258.9625854492188 108.7391128540039 258.3889465332031 C 110.5004272460938 257.8156127929688 112.2130126953125 257.2279663085938 113.8749847412109 256.6261291503906 C 115.5361251831055 256.0247192382812 117.1472244262695 255.4097137451172 118.7088928222656 254.7805480957031 C 120.2693252563477 254.1518096923828 121.7808990478516 253.5093688964844 123.24072265625 252.8532562255859 C 123.3669509887695 252.9713745117188 123.4936828613281 253.0891265869141 123.6218643188477 253.2064666748047 C 123.7495422363281 253.3236541748047 123.8782119750977 253.4404754638672 124.00732421875 253.5568389892578 C 124.1374359130859 253.6732177734375 124.2680206298828 253.78955078125 124.3985748291016 253.9053344726562 C 124.5296325683594 254.0209045410156 124.6616592407227 254.1361846923828 124.7946548461914 254.2509307861328 C 125.4731063842773 254.8371734619141 126.1727905273438 255.4126892089844 126.8932113647461 255.9763488769531 C 127.6139602661133 256.5401306152344 128.3549499511719 257.0921020507812 129.1141967773438 257.6311950683594 C 129.8732757568359 258.1703186035156 130.6520690917969 258.6966247558594 131.4486389160156 259.2096557617188 C 132.2445068359375 259.7224426269531 133.05810546875 260.2213439941406 133.8875122070312 260.7059631347656 C 134.7389831542969 261.20263671875 135.6076507568359 261.6844787597656 136.4935455322266 262.1509704589844 C 137.3791809082031 262.61767578125 138.2810363769531 263.0685119628906 139.1991119384766 263.50341796875 C 140.1164245605469 263.9381103515625 141.0489654541016 264.3565979003906 141.9938201904297 264.7583312988281 C 142.9388732910156 265.1599426269531 143.8981781005859 265.5448303222656 144.8682861328125 265.911865234375 C 144.9768676757812 265.95263671875 145.0849609375 265.9933166503906 145.1925506591797 266.0335693359375 C 145.3016204833984 266.0740966796875 145.4096984863281 266.1142578125 145.5182647705078 266.1542663574219 C 145.6273040771484 266.1943664550781 145.7358551025391 266.2340087890625 145.8443908691406 266.2737731933594 C 145.9539184570312 266.3133850097656 146.0624542236328 266.3522644042969 146.1714935302734 266.3915405273438 C 148.1505889892578 267.100830078125 150.1709899902344 267.7376708984375 152.2287445068359 268.3013305664062 C 154.28515625 268.8643798828125 156.3793334960938 269.3546752929688 158.5083465576172 269.7713623046875 C 160.6354064941406 270.1875915527344 162.7967071533203 270.5297546386719 164.9888610839844 270.7981567382812 C 167.1784973144531 271.0658569335938 169.3998565673828 271.2597045898438 171.6485595703125 271.3785705566406 C 174.2348327636719 271.5151672363281 176.8436279296875 271.5519714355469 179.4710388183594 271.4881591796875 C 182.0962982177734 271.4249877929688 184.7391662597656 271.2615356445312 187.3953704833984 270.9992370605469 C 190.0493316650391 270.7368469238281 192.7170562744141 270.3760070800781 195.3927917480469 269.9162902832031 C 198.0668182373047 269.4572448730469 200.7487945556641 268.8996276855469 203.4354705810547 268.2442626953125 C 206.7005004882812 267.4479675292969 210.04052734375 266.390869140625 213.4492492675781 265.0758056640625 C 216.8548889160156 263.7621154785156 220.3294219970703 262.1912231445312 223.8660278320312 260.3670654296875 C 227.3988494873047 258.544677734375 230.9945373535156 256.4698181152344 234.6452789306641 254.1455688476562 C 238.2910461425781 251.8238525390625 241.9941558837891 249.2538757324219 245.7453765869141 246.4384918212891 C 247.4828033447266 245.1348266601562 249.2321166992188 243.7773284912109 250.9890594482422 242.3678588867188 C 252.74609375 240.9591522216797 254.5112152099609 239.499755859375 256.2816467285156 237.9911499023438 C 258.0516052246094 236.4835662841797 259.826904296875 234.9277038574219 261.6046447753906 233.3254852294922 C 263.3810424804688 231.7242736816406 265.1603698730469 230.0772247314453 266.9384460449219 228.3870544433594 C 268.6513061523438 226.7595520019531 270.3676452636719 225.0874328613281 272.0851135253906 223.3742980957031 C 273.8012390136719 221.6619110107422 275.5185241699219 219.9083251953125 277.2346496582031 218.1165771484375 C 278.948974609375 216.3259735107422 280.6616821289062 214.4972381591797 282.3690490722656 212.6338806152344 C 284.0760192871094 210.7714080810547 285.7776794433594 208.8740081787109 287.47119140625 206.9447479248047 C 289.1161804199219 205.0711517333984 290.7567443847656 203.1640777587891 292.3902587890625 201.2272033691406 C 294.0225219726562 199.2913513183594 295.6476745605469 197.3253173828125 297.2629699707031 195.3332977294922 C 298.8775329589844 193.3418426513672 300.4817810058594 191.3244171142578 302.0734558105469 189.2837677001953 C 303.6644287109375 187.2444000244141 305.2423095703125 185.1821594238281 306.804931640625 183.1003723144531 C 308.3381958007812 181.0568542480469 309.8585205078125 178.9924774169922 311.3630981445312 176.9106750488281 C 312.8675231933594 174.8298797607422 314.3558349609375 172.7315368652344 315.82568359375 170.6195831298828 C 317.2944641113281 168.5084838867188 318.7453002929688 166.3838500976562 320.1754760742188 164.2490997314453 C 321.6055908203125 162.1150817871094 323.0150146484375 159.9709320068359 324.400146484375 157.8206329345703 C 325.7769775390625 155.6838684082031 327.13134765625 153.5394439697266 328.4629516601562 151.3905181884766 C 329.7930603027344 149.2426300048828 331.0990600585938 147.0902404785156 332.3786010742188 144.9375457763672 C 333.6581420898438 142.7855987548828 334.9112854003906 140.6329498291016 336.13623046875 138.4835968017578 C 337.3602600097656 136.3348388671875 338.5556945800781 134.1890869140625 339.7206726074219 132.050537109375 C 340.8935852050781 129.8979034423828 342.0361022949219 127.7502822875977 343.1477966308594 125.6118392944336 C 344.2582092285156 123.4735565185547 345.3369750976562 121.3443222045898 346.3817443847656 119.2274551391602 C 347.42626953125 117.1111907958984 348.4368286132812 115.0073776245117 349.4131164550781 112.9201812744141 C 350.38818359375 110.8330535888672 351.3284912109375 108.7623672485352 352.2312927246094 106.7111053466797 C 352.3668518066406 106.4027328491211 352.4354553222656 106.0805740356445 352.4423828125 105.7619705200195 C 352.4502258300781 105.4437255859375 352.396484375 105.1286773681641 352.2882080078125 104.8346176147461 C 352.179931640625 104.5407791137695 352.0171813964844 104.2674713134766 351.8067016601562 104.0326080322266 C 351.5957336425781 103.797737121582 351.3369750976562 103.6014251708984 351.0366821289062 103.4611663818359 C 351.0257873535156 103.4560775756836 351.015380859375 103.4512329101562 351.0045166015625 103.4466247558594 C 350.9941711425781 103.4417877197266 350.9832763671875 103.4369430541992 350.972412109375 103.4324569702148 C 350.9615478515625 103.427848815918 350.9507141113281 103.4232559204102 350.9403076171875 103.4186477661133 C 350.9294738769531 103.4144058227539 350.9190673828125 103.4099197387695 350.9081726074219 103.4055480957031 Z M 124.4203033447266 246.72998046875 C 123.702018737793 245.9474487304688 123.02587890625 245.1512451171875 122.3928756713867 244.3430023193359 C 121.7607345581055 243.5347442626953 121.1717834472656 242.7143707275391 120.6299438476562 241.883544921875 C 120.0865249633789 241.0524597167969 119.5907745361328 240.2115936279297 119.1426391601562 239.3627777099609 C 118.6954193115234 238.5137023925781 118.2958831787109 237.6564025878906 117.9479370117188 236.7927398681641 C 116.887809753418 234.162353515625 116.339599609375 231.5739288330078 116.2869720458984 229.0679016113281 C 116.2338409423828 226.5615234375 116.677375793457 224.1381988525391 117.5998153686523 221.8375701904297 C 118.5230255126953 219.5376586914062 119.9251174926758 217.3615875244141 121.7908325195312 215.3488006591797 C 123.6550827026367 213.3369750976562 125.9814300537109 211.4888000488281 128.7527770996094 209.8441772460938 L 128.8257141113281 209.8006591796875 L 128.895263671875 209.7529296875 C 129.6300048828125 209.2501373291016 130.4134521484375 208.8503723144531 131.2304840087891 208.5537719726562 C 132.0473327636719 208.2576599121094 132.8987274169922 208.0644378662109 133.7666931152344 207.9744262695312 C 134.6344146728516 207.8846435546875 135.5206298828125 207.8975982666016 136.4078521728516 208.0135192871094 C 137.2958068847656 208.1295318603516 138.1842651367188 208.3480682373047 139.0597229003906 208.6697387695312 C 139.2595520019531 208.7431335449219 139.4583892822266 208.8218536376953 139.6567230224609 208.9060363769531 C 139.8545684814453 208.9898529052734 140.0514068603516 209.079345703125 140.2477416992188 209.1740570068359 C 140.4435882568359 209.2688903808594 140.6379547119141 209.3686828613281 140.8322906494141 209.4744110107422 C 141.0256805419922 209.5798034667969 141.2175598144531 209.6905059814453 141.4079742431641 209.8064422607422 C 142.3390960693359 210.3724975585938 143.2648315429688 211.093505859375 144.1145629882812 211.9579925537109 C 144.9640502929688 212.8219909667969 145.7381286621094 213.8297729492188 146.3658447265625 214.9701843261719 C 146.9939270019531 216.1107025146484 147.4762268066406 217.3839263916016 147.7419128417969 218.7784881591797 C 148.009033203125 220.1732177734375 148.0591125488281 221.6899108886719 147.8241424560547 223.3185424804688 C 147.6332397460938 224.6377410888672 147.2583618164062 225.9643707275391 146.7062225341797 227.2893676757812 C 146.1540069580078 228.6146697998047 145.4244689941406 229.9383392333984 144.5237121582031 231.2516479492188 C 143.6217651367188 232.5653076171875 142.5489654541016 233.8688049316406 141.3099670410156 235.1527862548828 C 140.0705261230469 236.4371948242188 138.6656494140625 237.7024688720703 137.1009216308594 238.9390716552734 C 136.2282867431641 239.6288604736328 135.3094329833984 240.3085021972656 134.3437805175781 240.9779052734375 C 133.3788757324219 241.6479339599609 132.3676300048828 242.3079071044922 131.3104705810547 242.9571685791016 C 130.2534942626953 243.6068115234375 129.1505584716797 244.2461395263672 128.0021209716797 244.8748168945312 C 126.8532791137695 245.5038146972656 125.6598587036133 246.1220397949219 124.4203033447266 246.72998046875 Z" stroke="none" fill="#f3f4f6"/>
  </g>
  <g id="Arrow_peak" transform="translate(333.788 74.177)" fill="#f3f4f6">
    <path d="M27.315,7.789a2.682,2.682,0,0,0-.548-1.435,2.629,2.629,0,0,0-1.139-.844,2.537,2.537,0,0,0-1.4-.124,2.507,2.507,0,0,0-1.316.724L1.493,28.041a2.643,2.643,0,0,0-.668,1.17,2.743,2.743,0,0,0,.53,2.439,2.591,2.591,0,0,0,1.09.775l23.992,9.025a2.492,2.492,0,0,0,1.308.129,2.548,2.548,0,0,0,1.14-.51,2.643,2.643,0,0,0,.778-1,2.693,2.693,0,0,0,.222-1.331Z" stroke="none"/>
    <path d="M 3.847540140151978 29.81178855895996 L 24.5166130065918 8.640777587890625 L 27.00155639648438 38.53375625610352 L 3.847540140151978 29.81178855895996 M 2.445302963256836 32.42461395263672 L 26.43683242797852 41.44949722290039 C 26.87926864624023 41.61592864990234 27.32609748840332 41.65034866333008 27.74494361877441 41.57821655273438 C 28.16373062133789 41.506103515625 28.55455780029297 41.32747650146484 28.88506126403809 41.06777572631836 C 29.21552848815918 40.80810546875 29.4857063293457 40.46736526489258 29.66324615478516 40.07099151611328 C 29.84078407287598 39.67464065551758 29.92569732666016 39.22262191772461 29.88564682006836 38.74034118652344 L 27.31515693664551 7.788726806640625 C 27.29179573059082 7.507431983947754 27.22982025146484 7.245431423187256 27.13622093200684 7.005393505096436 C 27.04262351989746 6.765347003936768 26.91738891601562 6.547257423400879 26.76751708984375 6.353797912597656 C 26.61764526367188 6.16032886505127 26.44312858581543 5.991488933563232 26.25095176696777 5.849949836730957 C 26.05877113342285 5.708402156829834 25.84893035888672 5.594159603118896 25.6284236907959 5.509896278381348 C 25.40790367126465 5.425626754760742 25.17671012878418 5.371341228485107 24.94185066223145 5.349717140197754 C 24.70697402954102 5.328092098236084 24.46842575073242 5.339132785797119 24.23320388793945 5.385518074035645 C 23.99796676635742 5.431907176971436 23.76605224609375 5.513645172119141 23.54446983337402 5.63340950012207 C 23.3228759765625 5.753183841705322 23.11161613464355 5.910989284515381 22.91769027709961 6.10950231552124 L 1.493340969085693 28.04096412658691 C 1.158151865005493 28.38408851623535 0.9384973049163818 28.78768157958984 0.8254677057266235 29.2105712890625 C 0.7124317288398743 29.63347434997559 0.7060300707817078 30.07564353942871 0.7973176240921021 30.49589538574219 C 0.8886014223098755 30.91613006591797 1.077564239501953 31.31442451477051 1.355244994163513 31.64961242675781 C 1.632898211479187 31.98477172851562 1.999236941337585 32.25681686401367 2.445302963256836 32.42461395263672 Z" stroke="none" fill="#f3f4f6"/>
  </g>
</svg>
