<svg xmlns="http://www.w3.org/2000/svg" width="138.646" height="148.657" viewBox="0 0 138.646 148.657">
  <g id="ecoshop" transform="translate(-79.102 -48.6)">
    <path id="Pfad_4" data-name="Pfad 4" d="M244.952,436.269H241.39a3.282,3.282,0,1,1,0-6.561h3.55a1,1,0,0,0,.411-1.916,17.664,17.664,0,0,0-16.538,1.1,3.042,3.042,0,0,0,.627,3.7,17.415,17.415,0,0,0,11.751,4.5,17.644,17.644,0,0,0,4.435-.572.979.979,0,0,0-.672-.24Z" transform="translate(-103.915 -262.768)" fill="#56806c"/>
    <path id="Pfad_5" data-name="Pfad 5" d="M321.06,321.3a1,1,0,0,0,.411,1.913h3.55a3.282,3.282,0,1,1,0,6.564h-3.55a.976.976,0,0,0-.782.368,17.738,17.738,0,0,0,3.933.444,17.43,17.43,0,0,0,11.751-4.5,3.042,3.042,0,0,0,.216-4.28,17.679,17.679,0,0,0-15.513-.511Z" transform="translate(-167.948 -188.672)" fill="#56806c"/>
    <path id="Pfad_6" data-name="Pfad 6" d="M239.721,223.269H237.75a3.282,3.282,0,0,1,0-6.564h1.959a1,1,0,0,0,.411-1.916,17.676,17.676,0,0,0-16.538,1.1,3.042,3.042,0,0,0,.627,3.7,17.43,17.43,0,0,0,11.751,4.5,17.642,17.642,0,0,0,4.435-.572.979.979,0,0,0-.672-.24Z" transform="translate(-100.276 -114.559)" fill="#56806c"/>
    <path id="Pfad_7" data-name="Pfad 7" d="M289.926,313.19l-8.986-42.808a3.282,3.282,0,1,0-6.424,1.348c1.862,8.858,6.388,30.373,8.654,41.226a5.381,5.381,0,0,1-5.268,6.488H235.76a8.97,8.97,0,0,1-6.458-2.719,24.122,24.122,0,0,0-37.923,4.3,3.282,3.282,0,0,0,0,3.407,24.125,24.125,0,0,0,37.91,4.31,8.98,8.98,0,0,1,6.485-2.719l43.6.134a10.75,10.75,0,0,0,10.555-12.961ZM219.24,327.921a17.621,17.621,0,0,1-18.993-2.951,3.042,3.042,0,0,1,0-4.5,17.627,17.627,0,0,1,18.993-2.948,1,1,0,0,1-.411,1.916h-3.562a3.282,3.282,0,1,0,0,6.561h3.55a1,1,0,0,1,.423,1.916Z" transform="translate(-77.793 -152.504)" fill="#d1d5db"/>
    <path id="Pfad_8" data-name="Pfad 8" d="M217.56,360.183l-.794-3.775a3.157,3.157,0,0,0-3.09-2.51h-.1a3.282,3.282,0,0,0-3.212,3.954l.216,1.025a4.535,4.535,0,0,1-4.438,5.475H91.813a5.387,5.387,0,0,1-5.271-6.494l8.149-38.82a5.384,5.384,0,0,1,5.272-4.28H136.6a8.964,8.964,0,0,1,6.455,2.719,24.125,24.125,0,0,0,37.923-4.3,3.282,3.282,0,0,0,0-3.407,24.125,24.125,0,0,0-37.907-4.313,8.967,8.967,0,0,1-6.488,2.719l-37.518-.137A10.753,10.753,0,0,0,88.5,316.578l-9.214,43.891a8.657,8.657,0,0,0,8.475,10.437H208.851a8.9,8.9,0,0,0,8.709-10.722Zm-64.447-53.907a17.627,17.627,0,0,1,18.993,2.948,3.042,3.042,0,0,1,0,4.5,17.643,17.643,0,0,1-18.993,2.951,1,1,0,0,1,.411-1.916h3.55a3.282,3.282,0,1,0,0-6.564h-3.55a1,1,0,0,1-.411-1.913Z" transform="translate(0 -173.648)" fill="#d1d5db"/>
    <path id="Pfad_9" data-name="Pfad 9" d="M229.375,97.327l-2.382-11.346a9.56,9.56,0,0,0-9.354-7.6h-1.868a4.335,4.335,0,0,1-4.259-3.672c-2.6-16.277-14.561-26.105-32.52-26.105s-29.923,9.828-32.52,26.105a4.335,4.335,0,0,1-4.259,3.672h-3.2a7.909,7.909,0,0,0-7.742,6.288l-8.222,39.19a3.282,3.282,0,0,0,6.421,1.351c1.5-7.151,5.7-27.142,7.55-35.964a5.384,5.384,0,0,1,5.271-4.277H215.7a5.384,5.384,0,0,1,5.271,4.28l1.351,6.421a5.387,5.387,0,0,1-5.275,6.494H186.914a8.967,8.967,0,0,1-6.455-2.719,24.125,24.125,0,0,0-37.923,4.3,3.282,3.282,0,0,0,0,3.407,24.125,24.125,0,0,0,37.923,4.3,8.97,8.97,0,0,1,6.458-2.719h33.217a9.43,9.43,0,0,0,9.241-11.4ZM201.141,78.386h-44.3a3.678,3.678,0,0,1-3.6-4.441c3.544-16.773,18.735-18.774,25.743-18.774s22.205,2,25.746,18.774a3.681,3.681,0,0,1-3.6,4.441ZM170.4,110.629a17.627,17.627,0,0,1-18.993-2.948,3.042,3.042,0,0,1,0-4.5,17.643,17.643,0,0,1,18.993-2.951,1,1,0,0,1-.411,1.916h-1.971a3.282,3.282,0,1,0,0,6.564h1.959a1,1,0,0,1,.423,1.907Z" transform="translate(-30.541)" fill="#d1d5db"/>
  </g>
</svg>
