<svg xmlns="http://www.w3.org/2000/svg" width="245.395" height="146.388" viewBox="0 0 245.395 146.388">
  <g id="eco_whale" data-name="eco whale" transform="translate(-6.1 -81)">
    <text id="ECO" transform="translate(143.495 185.563)" fill="#d1d5db" font-size="29" font-family="SegoeUI-Bold, Segoe UI" font-weight="700"><tspan x="0" y="0" letter-spacing="0.05em">EC</tspan><tspan y="0">O</tspan></text>
    <text id="WHALE" transform="translate(143.495 220.388)" fill="#d1d5db" font-size="29" font-family="SegoeUI-Bold, Segoe UI" font-weight="700"><tspan x="0" y="0" letter-spacing="0.05em">WHAL</tspan><tspan y="0">E</tspan></text>
    <path id="Pfad_10" data-name="Pfad 10" d="M125.791,177.16c0-10.059-7.824-18.213-17.475-18.213H23.557a12.751,12.751,0,0,1-12.467-12.988,7.669,7.669,0,0,1,7.189-7.794h45.17c12.388-.014,22.427-10.477,22.44-23.388a2.549,2.549,0,0,0-2.495-2.6H70.058a35.216,35.216,0,0,0,.862-7.606q0-.1,0-.195C70.9,91.472,60.866,81.017,48.486,81a2.549,2.549,0,0,0-2.495,2.6v20.832c-.038,15.639-12.112,28.352-27.116,28.551a2.311,2.311,0,0,0-.3,0,12.764,12.764,0,0,0-12.473,13v31.207h0c0,27.268,21.218,49.369,47.381,49.352H78.41c25.979,0,47.112-21.8,47.381-48.871v-.041h0v-.465ZM63.448,133H55.753a33.511,33.511,0,0,0,12.654-15.594H80.688A17.726,17.726,0,0,1,63.448,133ZM50.98,104.413V86.4a17.985,17.985,0,0,1,14.962,17.906.656.656,0,0,0,0,.107A28.53,28.53,0,0,1,48.5,131.03a34.29,34.29,0,0,0,12.467-26.617,2.5,2.5,0,1,0-4.989,0A28.643,28.643,0,0,1,38.5,131.068,34.284,34.284,0,0,0,50.98,104.413ZM88.389,210.949H53.481c-16.607-.023-31.676-10.138-38.565-25.888A50.142,50.142,0,0,0,19.99,191.3,46.126,46.126,0,0,0,53.5,205.742h44.88a26.462,26.462,0,0,0,9.756-1.853,31.386,31.386,0,0,1-19.747,7.059ZM53.481,195.354h54.835a16.912,16.912,0,0,0,5.095-.786,21.872,21.872,0,0,1-15.068,5.986H53.481c-16.607-.025-31.675-10.14-38.565-25.888a49.63,49.63,0,0,0,5.074,6.23,46.11,46.11,0,0,0,33.492,14.458ZM23.557,164.166h84.777A12.751,12.751,0,0,1,120.8,177.16h0v.333a12.8,12.8,0,0,1-12.467,12.655H53.5c-17.888-.02-33.845-11.724-39.9-29.267a16.909,16.909,0,0,0,9.961,3.285Zm-8.659,31.3a49.63,49.63,0,0,0,5.074,6.23,46.126,46.126,0,0,0,33.51,14.445H88.389a36.1,36.1,0,0,0,14.7-3.137,41,41,0,0,1-24.7,8.313h-24.9C36.876,221.3,21.8,211.2,14.9,195.461Z" fill="#d1d5db"/>
  </g>
</svg>
