<svg xmlns="http://www.w3.org/2000/svg" width="126.524" height="148.657" viewBox="0 0 126.524 148.657">
  <g id="leaves" transform="translate(-44.689 -0.01)">
    <path id="Pfad_11" data-name="Pfad 11" d="M62.386,98.052a2.56,2.56,0,0,1,.114-.53,64.765,64.765,0,0,0,1.1-17.6c-.119-1.668-.248-3.283-.377-4.869L50.391,64.413a2.573,2.573,0,0,1,3.281-3.964l8.893,7.376c-.387-4.012-.79-7.758-1.167-11.259-.186-1.717-.362-3.365-.53-4.978a.273.273,0,0,0,0-.045A136.754,136.754,0,0,1,59.806,32.5L54.345,24.29a2.57,2.57,0,1,1,4.282-2.842l2.21,3.338A23,23,0,0,1,64.4,16.857a2.569,2.569,0,0,1,4.183,2.973C66.323,23,65.257,26.874,64.953,31.723v.156a92.108,92.108,0,0,0,.436,13.038l5.568-6.735a2.571,2.571,0,0,1,3.965,3.273L66.1,52.126c.134,1.264.273,2.552.416,3.893.567,5.25,1.189,11.046,1.734,17.491v.012c.166,1.95.322,3.952.468,6.026a71.7,71.7,0,0,1-.369,14.1l9.4-4.891a2.569,2.569,0,0,1,2.371,4.557l-12.885,6.712a61.891,61.891,0,0,1-13.383,26.6c-1.754,2.042-.317,3.3,1.752,2.376,24.716-11.061,36.54-34.593,33.624-59.22C86.552,47.17,72.894,25.834,80.085,6.348c.838-2.272.2-7.007-4.376-6.259C63.61,2.062,42.04,11.1,45.452,50.723c2.726,31.716,4.074,55.565-.612,72.117-.558,1.967.406,5.469,3.189,2.569A56.618,56.618,0,0,0,62.386,98.052Z" transform="translate(0 0)" fill="#d1d5db"/>
    <path id="Pfad_12" data-name="Pfad 12" d="M246.639,461.4c-16.966,2.612-22.927-10.558-45.52-12.724-26.339-2.527-40.361,5.516-48.159,13.692-1.995,2.091-1.385,4.086.79,3.063A58.4,58.4,0,0,1,190,460.952l9.815-7.805a2.569,2.569,0,0,1,3.2,4.021l-6.673,5.31c2.047.6,4.135,1.3,6.271,2.138,15.36,6.021,25.576,5.563,31.932,4.7a2.569,2.569,0,1,1,.694,5.092,59.035,59.035,0,0,1-21.252-.939l2.5,4.292a2.57,2.57,0,0,1-4.438,2.592l-5.114-8.759c-1.982-.622-4.036-1.343-6.195-2.19a59.048,59.048,0,0,0-25.712-4.259l9.267,7.542a2.57,2.57,0,0,1-1.625,4.562,2.542,2.542,0,0,1-1.623-.58l-13-10.605A53.108,53.108,0,0,0,152.95,471.6c-2.287,1.264.089,2.946,2.123,2.864,22.139-.924,31.372,12.885,57.359,11.2,28.359-1.831,36.691-12.937,39.115-19.919C252.707,462.384,248.458,461.116,246.639,461.4Z" transform="translate(-80.532 -337.138)" fill="#d1d5db"/>
  </g>
</svg>
